<svg width="28" height="22" viewBox="0 0 28 22" fill="none" xmlns="http://www.w3.org/2000/svg">
<path d="M18.2188 10.1587L12.3259 6.14041C12.1768 6.04348 12.0055 5.98788 11.829 5.97908C11.6525 5.97027 11.4769 6.00856 11.3192 6.09018C11.1622 6.17687 11.0312 6.30566 10.9404 6.46274C10.8495 6.61982 10.8022 6.79924 10.8036 6.98174V15.0183C10.8022 15.2008 10.8495 15.3802 10.9404 15.5373C11.0312 15.6943 11.1622 15.8231 11.3192 15.9098C11.464 15.984 11.6237 16.0227 11.7857 16.0228C11.9771 16.0207 12.1641 15.9642 12.3259 15.8596L18.2188 11.8413C18.3555 11.75 18.4679 11.6253 18.5457 11.4784C18.6235 11.3315 18.6642 11.1671 18.6642 11C18.6642 10.8329 18.6235 10.6685 18.5457 10.5216C18.4679 10.3747 18.3555 10.25 18.2188 10.1587ZM12.7679 13.1473V8.85274L15.9107 11L12.7679 13.1473ZM26.8002 3.69178C26.6874 3.22883 26.4665 2.80077 26.1564 2.44429C25.8464 2.08781 25.4565 1.81354 25.0201 1.64498C20.8214 -0.0125545 14.1183 2.79741e-06 13.75 2.79741e-06C13.3817 2.79741e-06 6.67857 -0.0125545 2.47991 1.64498C2.04352 1.81354 1.6536 2.08781 1.34356 2.44429C1.03352 2.80077 0.812616 3.22883 0.699777 3.69178C0.38058 4.93493 0 7.22032 0 11C0 14.7797 0.38058 17.0651 0.699777 18.3082C0.812616 18.7712 1.03352 19.1992 1.34356 19.5557C1.6536 19.9122 2.04352 20.1865 2.47991 20.355C6.5067 21.9498 12.817 22 13.6641 22H13.8359C14.683 22 20.9933 21.9498 25.0201 20.355C25.4565 20.1865 25.8464 19.9122 26.1564 19.5557C26.4665 19.1992 26.6874 18.7712 26.8002 18.3082C27.1194 17.0651 27.5 14.7797 27.5 11C27.5 7.22032 27.1194 4.93493 26.8002 3.69178ZM24.8973 17.8059C24.8611 17.9579 24.7898 18.0987 24.6894 18.2167C24.589 18.3347 24.4624 18.4263 24.3203 18.484C20.4286 20.016 13.8237 19.9909 13.75 19.9909H13.7377C13.6763 19.9909 7.07143 20.016 3.17969 18.484C3.03757 18.4263 2.91102 18.3347 2.81063 18.2167C2.71025 18.0987 2.63894 17.9579 2.60268 17.8059C2.30804 16.6632 1.96429 14.5662 1.96429 11C1.96429 7.43379 2.30804 5.33676 2.60268 4.19407C2.63894 4.04213 2.71025 3.90129 2.81063 3.78332C2.91102 3.66535 3.03757 3.57368 3.17969 3.51598C6.92411 2.04681 13.2098 2.00914 13.7254 2.00914H13.75C13.8237 2.00914 20.4286 1.98402 24.3203 3.51598C24.4624 3.57368 24.589 3.66535 24.6894 3.78332C24.7898 3.90129 24.8611 4.04213 24.8973 4.19407C25.192 5.33676 25.5357 7.43379 25.5357 11C25.5357 14.5662 25.192 16.6632 24.8973 17.8059Z" fill="black"/>
</svg>
