<svg width="24" height="20" viewBox="0 0 24 20" fill="none" xmlns="http://www.w3.org/2000/svg">
<path d="M23 1.32161C21.9 1.86061 20.822 2.07951 19.7 2.41061C18.4669 1.01911 16.6387 0.94211 14.882 1.59991C13.1253 2.25771 11.9747 3.86591 12 5.71061V6.81061C8.4305 6.90191 5.2515 5.27611 3.2 2.41061C3.2 2.41061 -1.4002 10.5869 7.6 14.5106C5.5408 15.8823 3.4871 16.8074 1 16.7106C4.6388 18.6939 8.6043 19.3759 12.0374 18.3793C15.9754 17.2353 19.2116 14.284 20.4535 9.86311C20.824 8.51855 21.0079 7.12946 21.0002 5.73481C21.0002 5.46091 22.6612 2.68561 23 1.32051V1.32161Z" stroke="black" stroke-width="2" stroke-linecap="round" stroke-linejoin="round"/>
</svg>
