<svg width="22" height="22" viewBox="0 0 22 22" fill="none" xmlns="http://www.w3.org/2000/svg">
<path d="M6.37997 0H15.62C19.14 0 22 2.86 22 6.38V15.62C22 17.3121 21.3278 18.9349 20.1313 20.1313C18.9348 21.3278 17.3121 22 15.62 22H6.37997C2.85997 22 -3.05176e-05 19.14 -3.05176e-05 15.62V6.38C-3.05176e-05 4.68792 0.672146 3.06514 1.86863 1.86866C3.06511 0.672177 4.68789 0 6.37997 0ZM6.15997 2.2C5.10971 2.2 4.10247 2.61721 3.35983 3.35986C2.61718 4.1025 2.19997 5.10974 2.19997 6.16V15.84C2.19997 18.029 3.97097 19.8 6.15997 19.8H15.84C16.8902 19.8 17.8975 19.3828 18.6401 18.6401C19.3828 17.8975 19.8 16.8903 19.8 15.84V6.16C19.8 3.971 18.029 2.2 15.84 2.2H6.15997ZM16.775 3.85C17.1396 3.85 17.4894 3.99487 17.7472 4.25273C18.0051 4.51059 18.15 4.86033 18.15 5.225C18.15 5.58967 18.0051 5.93941 17.7472 6.19727C17.4894 6.45513 17.1396 6.6 16.775 6.6C16.4103 6.6 16.0606 6.45513 15.8027 6.19727C15.5448 5.93941 15.4 5.58967 15.4 5.225C15.4 4.86033 15.5448 4.51059 15.8027 4.25273C16.0606 3.99487 16.4103 3.85 16.775 3.85ZM11 5.5C12.4587 5.5 13.8576 6.07946 14.8891 7.11091C15.9205 8.14236 16.5 9.54131 16.5 11C16.5 12.4587 15.9205 13.8576 14.8891 14.8891C13.8576 15.9205 12.4587 16.5 11 16.5C9.54128 16.5 8.14233 15.9205 7.11088 14.8891C6.07943 13.8576 5.49997 12.4587 5.49997 11C5.49997 9.54131 6.07943 8.14236 7.11088 7.11091C8.14233 6.07946 9.54128 5.5 11 5.5ZM11 7.7C10.1248 7.7 9.28539 8.04768 8.66652 8.66655C8.04765 9.28542 7.69997 10.1248 7.69997 11C7.69997 11.8752 8.04765 12.7146 8.66652 13.3335C9.28539 13.9523 10.1248 14.3 11 14.3C11.8752 14.3 12.7146 13.9523 13.3334 13.3335C13.9523 12.7146 14.3 11.8752 14.3 11C14.3 10.1248 13.9523 9.28542 13.3334 8.66655C12.7146 8.04768 11.8752 7.7 11 7.7Z" fill="white"/>
</svg>
