<svg width="160" height="46" viewBox="0 0 160 46" fill="none" xmlns="http://www.w3.org/2000/svg">
<path d="M0.444468 45.3999C0.444468 45.3999 0.425242 32.6803 0.388885 28.6917C0.351196 25.2638 0.305702 21.1923 0.249676 16.4773C0.194601 11.7633 0.111165 6.2655 0 0.600006C1.48054 0.637435 3.16546 0.637435 5.05361 0.600006C6.6825 0.600006 8.60744 0.735608 10.8291 0.697923C13.0503 0.661324 15.549 0.759496 18.326 0.684829C18.2886 1.39279 18.2702 2.23157 18.2702 3.20083C18.2335 4.05813 18.2149 5.10091 18.2149 6.33072V10.6915C17.6963 10.6544 17.0485 10.6353 16.2716 10.6353C15.605 10.6353 14.7527 10.6448 13.7171 10.6636C12.6804 10.6829 11.458 10.7109 10.0516 10.7475V12.8152C10.0516 13.4868 10.0422 14.3071 10.0238 15.2759C10.0046 16.2447 10.0142 16.4818 10.0516 17.7118H12.4672C13.7448 17.7118 14.1643 17.6748 16.3121 17.5999V21.2011C16.3121 22.0591 16.1582 24.59 16.1582 25.8004C16.1582 27.0119 16.1767 25.6838 16.2142 27.1001C15.7321 27.0633 15.1393 27.0439 14.4376 27.0439H13.0903C12.1642 27.0439 11.514 27.0633 10.2176 27.1001C10.2545 28.7769 10.2827 31.6924 10.3016 33.5557C10.3197 35.4194 10.3659 41.204 10.4403 43.2905L0.444531 45.4L0.444468 45.3999Z" fill="white"/>
<path d="M29.4245 40.8414C27.3092 40.8414 25.5179 40.4461 24.0515 39.6565C22.5842 38.8671 21.3903 37.6994 20.4699 36.1549C19.5483 34.6092 18.8744 32.7026 18.4484 30.4364C18.0214 28.1695 17.8087 25.5427 17.8087 22.5549C17.8087 19.7047 17.979 17.1033 18.3206 14.7508C18.6608 12.3991 19.2672 10.372 20.1366 8.67248C21.0064 6.97226 22.1837 5.65086 23.6678 4.70561C25.152 3.76164 27.0533 3.28943 29.3731 3.28943C31.7274 3.28943 33.6631 3.7267 35.1818 4.60246C36.6993 5.47853 37.8936 6.74059 38.7638 8.38914C39.6336 10.0376 40.2297 12.0462 40.5547 14.4161C40.8783 16.7859 41.0402 19.4821 41.0402 22.5038C41.0066 25.8694 40.7506 28.7195 40.273 31.0548C39.7948 33.3901 39.0875 35.2784 38.1495 36.7208C37.2109 38.1635 36.0166 39.2111 34.567 39.8635C33.117 40.5153 31.4025 40.8415 29.4244 40.8415L29.4245 40.8414ZM29.5269 33.7844C29.7654 33.7844 29.9785 33.6648 30.1668 33.4239C30.3535 33.1842 30.5072 32.6691 30.6269 31.8782C30.7461 31.0897 30.832 29.921 30.8833 28.3754C30.9342 26.8304 30.9599 24.7361 30.9599 22.0915C30.9599 19.585 30.9342 17.5757 30.8833 16.0645C30.832 14.5537 30.7461 13.4037 30.6269 12.6127C30.5072 11.8234 30.3458 11.2999 30.1407 11.042C29.9364 10.7839 29.697 10.656 29.4245 10.656C29.0832 10.656 28.8106 10.8019 28.6058 11.0934C28.4012 11.3854 28.2475 11.9609 28.1452 12.819C28.0435 13.678 27.9742 14.8796 27.9406 16.4251C27.9067 17.9707 27.89 19.9793 27.89 22.452C27.89 24.9594 27.9232 26.9593 27.9915 28.4532C28.06 29.9467 28.1535 31.0896 28.273 31.8782C28.3927 32.6691 28.5546 33.1842 28.7594 33.4239C28.964 33.6648 29.2201 33.7844 29.527 33.7844H29.5269Z" fill="white"/>
<path d="M55.9681 41.4676L55.0631 37.8218C54.7784 36.6425 54.4236 35.6854 53.9978 34.0241C53.5725 32.3623 53.074 30.4953 52.5075 28.4222C52.4716 28.4586 52.4008 28.4759 52.2939 28.4759H51.7616L51.9748 40.0005H49.2056H46.0646C44.8573 40.0005 43.5433 40.0178 42.124 40.0537C42.1592 37.1959 42.1948 33.8896 42.2304 30.1376C42.2654 26.9217 42.2919 23.062 42.31 18.56C42.3281 14.0568 42.5019 9.28919 42.5019 3.60747C44.0987 3.32157 49.8415 3.48272 51.0844 3.48272C56.0184 3.48272 58.3055 3.77782 60.5949 6.04702C62.8847 8.31705 64.9735 11.4127 64.9735 15.8798C64.9735 18.2381 64.7276 20.2033 63.929 21.7758C63.1301 23.3483 62.0384 24.6352 60.6538 25.6346C60.8674 26.3503 61.3995 28.0028 62.2517 30.5933C63.1037 33.1847 64.3459 36.2863 65.979 40.8243C65.2334 40.8592 64.3636 40.9132 63.3696 40.9844C62.5175 41.056 61.4705 41.1365 60.2277 41.2261C58.9852 41.3155 57.5661 41.3952 55.9681 41.4677L55.9681 41.4676ZM51.7616 21.9896C52.7905 21.958 53.5987 21.5716 54.1848 20.8295C54.7701 20.0884 55.0631 18.8466 55.0631 17.1058C55.0631 15.3973 54.7875 14.0517 54.2375 13.0678C53.6865 12.0849 52.8083 11.6406 51.6023 11.7381C51.6023 13.0272 51.6103 14.2764 51.6285 15.4852C51.6462 16.6948 51.6729 17.7828 51.7085 18.7502C51.7431 19.8787 51.7616 20.9588 51.7616 21.9895L51.7616 21.9896Z" fill="white"/>
<path d="M86.0309 39.4411C86.0659 36.7272 86.0855 33.5549 86.0855 29.9231C86.0855 26.8065 86.0659 23.056 86.0309 18.673C85.995 14.2903 86.101 10.1344 86.0291 4.55915C86.8178 4.52325 93.2275 3.21591 94.5543 3.14188C95.0204 4.57224 95.73 6.37664 96.375 8.24741C96.9131 9.86191 97.5767 11.8236 98.3658 14.1343C99.154 16.4447 100.069 19.0672 101.109 22.0013C101.001 19.7646 100.84 16.9311 100.625 13.5017C100.41 10.0726 100.105 7.49888 99.7105 2.69318C100.392 2.73041 107.115 2.74121 108.479 2.70397C108.513 5.71186 108.347 33.9177 108.527 40.0786C107.953 40.1517 102.545 40.7499 101.039 40.859C100.501 39.3192 99.8906 37.5586 99.2103 35.5784C98.5993 33.8917 97.8835 32.5194 97.0583 30.2263C96.2331 27.9343 95.3183 25.3942 94.3155 22.6063C94.3863 24.5143 94.4764 26.8426 94.584 29.5934C94.692 32.3441 94.8703 35.6819 95.1219 39.606C94.4043 39.606 93.5798 39.5884 92.6474 39.5511C91.8586 39.5146 90.8998 39.488 89.77 39.4688C88.6402 39.4512 87.3936 39.441 86.0309 39.441L86.0309 39.4411Z" fill="white"/>
<path d="M110.749 41.4443V30.1514C110.749 26.6491 110.73 22.5495 110.693 17.8532C110.656 13.1578 110.601 10.0758 110.527 4.59772H113.081H116.219C117.459 4.59772 118.912 4.57901 120.578 4.54132C120.578 8.23092 120.596 10.1944 120.633 14.4431C120.67 18.0585 120.698 22.1954 120.717 26.8532C120.735 31.5127 120.781 36.3757 120.855 41.4443H118.357H110.749H110.749Z" fill="white"/>
<path d="M121.492 15.5911C121.526 15.07 121.543 14.3615 121.543 13.467C121.543 12.7216 121.534 11.7338 121.518 10.5043C121.5 9.2743 121.474 7.74641 121.44 5.91997C121.44 5.91997 138.497 5.30852 141.889 5.23322C141.854 6.01629 141.819 7.35506 141.785 8.32356C141.75 9.18163 141.724 10.2162 141.707 11.4269C141.69 12.638 141.698 13.1005 141.733 14.6655H140.28C139.795 14.6655 139.215 14.6567 138.541 14.6375C137.866 14.6195 137.096 14.6099 136.232 14.6099V19.8646C136.232 21.8031 136.24 24.8989 136.258 27.3025C136.274 29.7068 136.301 29.7391 136.335 32.646C136.37 35.5528 136.404 38.7955 136.439 42.3732C135.782 42.336 135.002 42.3171 134.104 42.3171C133.308 42.3171 132.33 42.3262 131.171 42.3453C130.012 42.364 128.654 42.3915 127.097 42.4295C127.131 40.1187 127.149 37.4541 127.149 34.4347C127.149 31.8633 127.14 31.3929 127.123 27.7777C127.105 24.1632 127.079 20.0826 127.044 15.5357L121.492 15.5912L121.492 15.5911Z" fill="white"/>
<path d="M65.1258 12.9009C65.1619 12.3796 65.1816 11.6714 65.1816 10.7768C65.1816 10.0314 65.1715 9.04371 65.1538 7.8141C65.1345 6.58411 65.1065 5.05628 65.0702 3.22952C65.0702 3.22952 81.5273 4.37565 85.3136 4.92183C85.2766 5.7049 85.2417 7.52585 85.2233 8.73668C85.204 9.94751 85.2138 13.0327 85.2511 14.5979H83.6959C83.1775 14.5979 83.3239 14.5887 82.6018 14.5697C81.8801 14.552 81.0556 14.5422 80.1308 14.5422V19.7969C80.1308 21.7355 80.1394 22.2086 80.1584 24.6127C80.177 27.0164 80.2049 27.3575 80.2423 30.2645C80.2786 33.1712 80.3155 36.4132 80.353 39.9914C79.6497 39.9535 78.8167 39.935 77.8543 39.935C77.002 39.935 75.9561 39.9442 74.7164 39.9636C73.4757 39.9815 72.023 40.0097 70.3569 40.0474C70.3937 37.7376 70.4122 35.0725 70.4122 32.0534C70.4122 29.4824 70.4035 28.7031 70.3851 25.0877C70.3654 21.4729 70.3378 17.3926 70.3015 12.8454L65.1257 12.9009H65.1258Z" fill="white"/>
<path d="M143.127 42.9944C143.092 39.7524 143.517 35.3472 143.483 31.3225C143.449 27.8565 143.407 23.7752 143.355 19.0802C143.304 14.3841 143.244 8.43307 143.176 2.76713C144.133 2.76713 156.786 1.2492 159.898 1.21158V6.16688V9.26949C159.898 10.4806 159.932 10.578 160 12.0321C159.043 12.0698 158.103 12.0876 157.179 12.0876C156.392 12.1255 155.564 12.1439 154.692 12.1439C153.82 12.1439 153.042 12.1631 152.358 12.1997C152.323 12.9454 152.314 13.6246 152.331 14.2399C152.349 14.8544 152.358 16.6397 152.358 17.1229V18.6327C152.563 18.6327 153.161 18.6424 154.153 18.6609C155.144 18.6803 156.666 18.6519 158.719 18.577V21.2599V24.251C158.719 25.3879 158.735 25.4118 158.77 26.79H156.973C156.392 26.79 155.725 26.7812 154.974 26.762C154.221 26.7444 153.418 26.7345 152.563 26.7345V28.0757C152.563 28.9698 152.614 31.3974 152.716 32.888C153.264 32.9255 153.913 32.9628 154.666 32.9992C155.281 33.0364 156.033 33.0832 156.923 33.1393C157.811 33.195 158.803 33.2424 159.898 33.2787C159.863 33.9129 159.847 34.6956 159.847 35.6269C159.812 36.4095 159.795 37.3781 159.795 38.5339V44.1574C158.29 44.12 145.281 43.0326 143.127 42.9944H143.127Z" fill="white"/>
</svg>
