<svg width="41" height="48" viewBox="0 0 41 48" fill="none" xmlns="http://www.w3.org/2000/svg">
<path d="M37.2554 0.134155H3.71486C1.01142 0.134155 0.00134277 1.14782 0.00134277 3.87577V36.805C0.00134277 37.118 0.0161969 37.4012 0.045905 37.6696C0.105321 38.2658 0.120175 38.8472 0.669776 39.5031C0.729193 39.5627 1.29365 39.995 1.29365 39.995C1.59073 40.1441 1.79869 40.2484 2.14033 40.3975L18.6432 47.3441C19.5048 47.7317 19.8612 47.8956 20.4851 47.8807C21.109 47.8956 21.4655 47.7466 22.327 47.3441L38.8299 40.3975C39.1716 40.2633 39.3795 40.1441 39.6766 39.995C39.6766 39.995 40.2411 39.5776 40.3005 39.5031C40.8501 38.8472 40.8649 38.2658 40.9243 37.6696C40.954 37.4012 40.9689 37.118 40.9689 36.805V3.87577C40.9689 1.14782 39.9737 0.134155 37.2554 0.134155Z" fill="white"/>
<path d="M34.9976 33.2422L34.9827 33.3168L34.9679 33.4062L34.953 33.4807L34.9233 33.5553L34.9084 33.6298L34.849 33.7789L34.8193 33.8385L34.7896 33.913L34.5668 34.2112L34.4034 34.3752L34.2846 34.4646L34.2252 34.4944L34.1657 34.5391L34.0915 34.5838L34.0172 34.6137L33.9429 34.6584L33.7201 34.7478V34.7329L33.6458 34.7627L33.5716 34.7776L33.4379 34.8074L33.1408 34.8671L33.0517 34.882L32.9774 34.8969H32.6803L32.6061 34.882H32.5169L32.3684 34.8522L32.2793 34.8373L31.8336 34.7478L31.7594 34.718L31.6851 34.7031L30.9424 34.405L30.8681 34.3602L30.8087 34.3155L30.7344 34.2708L30.3185 33.9578L30.2591 33.8981L30.3037 33.8385L30.3631 33.7789L30.4076 33.7192L30.4671 33.6596L30.5562 33.5404L30.6156 33.4807L30.6602 33.4211L30.7196 33.3615L30.7642 33.3019L30.8236 33.2422L30.9127 33.123L30.9721 33.0633L31.0167 33.0037L31.0761 32.9441L31.1206 32.8845L31.1801 32.9292L31.2543 32.9739L31.3137 33.0186L31.388 33.0633L31.4474 33.1081L31.5217 33.1528L31.5811 33.1975L31.6554 33.2273L31.7148 33.272L32.309 33.5106L32.5318 33.5553L32.6209 33.5702L32.6952 33.5851H32.7695L32.8586 33.6H33.022L33.1111 33.5851L33.3339 33.5404L33.4527 33.4807L33.5122 33.436L33.5567 33.3764L33.5864 33.3168L33.6161 33.2422L33.631 33.1677V33.1528L33.6161 33.0633L33.5864 32.9888L33.5419 32.9292L33.423 32.8397L33.3636 32.8099L33.2151 32.7503L33.1259 32.7056L33.0071 32.6758L32.9328 32.646L32.8586 32.6311L32.7843 32.6012L32.71 32.5863L32.6209 32.5565L32.5466 32.5416L32.4575 32.5118L32.3832 32.4969L32.309 32.4671L32.2347 32.4522L32.0862 32.3925L32.0119 32.3776L31.7891 32.2882L31.7 32.2584L31.4771 32.1689L31.3286 32.0795L31.2692 32.0348L31.1949 31.9901L31.0167 31.8559L30.8978 31.7366L30.7196 31.4981L30.675 31.4236L30.6156 31.3043L30.6008 31.2298L30.571 31.1702L30.5116 30.872L30.4968 30.7826V30.6037L30.571 30.231L30.6008 30.1565L30.6156 30.082L30.7047 29.8584L30.7939 29.7093L30.883 29.5901L31.1206 29.3515L31.3583 29.1727L31.4326 29.1279L31.5069 29.0981L31.5811 29.0534L31.8782 28.9342L31.9376 28.9192L32.5318 28.8H32.8586L33.0368 28.8298H33.1111L33.2002 28.8447L33.2745 28.8596L33.3636 28.8745L33.735 28.9491L33.8835 29.0087L33.9578 29.0236L34.3291 29.1727L34.4034 29.2174L34.4628 29.2472L34.6114 29.3366L34.6708 29.3814L34.745 29.4261L34.9827 29.605L34.8045 29.8435L34.7599 29.918L34.448 30.3354L34.4034 30.4099L34.3143 30.5292L34.1657 30.8571L34.1212 30.9168L34.0618 30.872L33.9875 30.8273L33.8687 30.7379L33.7944 30.7081L33.735 30.6633L33.6607 30.6335L33.6013 30.6037L33.527 30.5739L33.4676 30.5441L33.3933 30.5143L33.3339 30.4845L33.2448 30.4547L33.0962 30.395L33.022 30.3801L32.9774 30.4099L32.6803 30.3503H32.5169L32.4278 30.3652L32.2793 30.395L32.1604 30.4547L32.0862 30.5143L32.0416 30.5888L32.0119 30.6633L31.997 30.7379V30.7528L32.0119 30.8571L32.0416 30.9466L32.0713 30.9913L32.1307 31.0509L32.205 31.0956L32.2644 31.1404L32.3387 31.1702L32.5169 31.2298L32.5763 31.2447L32.6358 31.2745L32.71 31.2894L32.7843 31.3193L32.8586 31.3342L33.1259 31.4236L33.2151 31.4385L33.2893 31.4683L33.3785 31.4981L33.4527 31.513L33.8241 31.6621L33.8984 31.677L33.9875 31.7068L34.0618 31.7515L34.136 31.7814L34.3588 31.9155L34.5371 32.0497L34.7748 32.2882L34.8193 32.3478L34.8639 32.4224L34.9084 32.482L34.953 32.5565L34.9827 32.6161L35.0124 32.6907L35.0867 33.0633L35.1015 33.1528V33.3317L34.9976 33.2422ZM25.4018 34.7627V29.2323H29.7541V30.4845H26.8427V31.3938H29.457V32.5714H26.8427V33.5106H29.7986V34.7627H25.4018ZM24.2135 34.7627H22.8321V31.4981L22.7875 31.5578L22.7429 31.6323L22.6538 31.7515L22.6093 31.8261L22.5201 31.9453L22.4756 32.0199L22.3419 32.1988L22.2973 32.2733L22.2082 32.3925L22.1636 32.4671L22.0745 32.5863L22.0299 32.6609L22.0002 32.7205L21.9557 32.7801L21.9111 32.8547L21.822 32.9739L21.7774 33.0484L21.7329 33.1081L21.7032 33.1677L21.6586 33.2273L21.614 33.3019L21.5249 33.4211L21.4952 33.4956L21.4061 33.6149L21.3615 33.6894L21.317 33.7491H21.2872L21.2427 33.6745L21.1981 33.6149L21.1536 33.5404L21.109 33.4807L21.0644 33.4062L21.0199 33.3466L20.9753 33.272L20.9307 33.2124L20.8862 33.1379L20.8565 33.0783L20.8119 33.0037L20.7674 32.9441L20.7228 32.8696L20.7971 32.795L20.7525 32.7205L20.7079 32.6609L20.6634 32.5863L20.6188 32.5267L20.5742 32.4522L20.5297 32.3925L20.5 32.3478L20.4554 32.2882L20.4109 32.2137L20.3663 32.154L20.3217 32.0795L20.2772 32.0199L20.2326 31.9453L20.2029 31.9006L20.1583 31.8261L20.1138 31.7665L20.0692 31.6919L20.0246 31.6323L19.9801 31.5578L19.9355 31.4981V34.7478H18.5095V29.2174H20.0544L20.0989 29.277L20.1435 29.3515L20.188 29.4112L20.2326 29.4857L20.2772 29.5453L20.3217 29.6199L20.3663 29.6795L20.4109 29.754L20.5 29.8733L20.5445 29.9478L20.5891 30.0074L20.6337 30.082L20.6782 30.1416L20.7228 30.2161L20.8119 30.3354L20.8565 30.4099L20.901 30.4696L20.9456 30.5441L20.9902 30.6037L21.0347 30.6783L21.0793 30.7379L21.109 30.8124L21.1536 30.872L21.1833 30.9317L21.2278 31.0062L21.2724 31.0658L21.317 31.1404L21.3615 31.2L21.3912 31.2745L21.4358 31.3342L21.4803 31.4087L21.5249 31.4683L21.5695 31.4087L21.614 31.3342L21.6586 31.2745L21.7032 31.2L21.7477 31.1404L21.7923 31.0658L21.8368 31.0062L21.8814 30.9317L21.926 30.872L21.9557 30.8124L22.0002 30.7379L22.0448 30.6783L22.0894 30.6037L22.1339 30.5441L22.1785 30.4696L22.2231 30.4099L22.2676 30.3354L22.3567 30.2161L22.4013 30.1416L22.4459 30.082L22.4904 30.0074L22.535 29.9478L22.5795 29.8733L22.6093 29.8137L22.6538 29.754L22.6984 29.6795L22.7429 29.6199L22.7875 29.5453L22.8321 29.4857L22.8766 29.4112L22.9212 29.3515L22.9658 29.277L23.0103 29.2174H24.5551V34.7478L24.2135 34.7627ZM15.4793 32.482L14.8257 30.8422L14.1424 32.5565H15.4199L15.4793 32.482ZM17.8411 34.7627H16.3705L15.9249 33.6447H13.7859L13.6374 34.0174L13.578 34.1516L13.3403 34.7478H11.8549L11.8846 34.6733L11.944 34.5391L12.0034 34.3901L12.0629 34.2559L12.152 34.0323L12.1817 33.9876L12.5085 33.1677L12.5679 33.0335L13.5186 30.6484L13.578 30.5143L13.8751 29.7689L13.8899 29.6944L14.1276 29.0981L14.187 28.964L14.2167 28.8894H15.613L16.5042 31.1255L16.5636 31.2596L17.9302 34.6882L17.9896 34.8224L17.8411 34.7627ZM11.2459 34.0472L10.83 34.3602L10.6072 34.4944L10.5329 34.5242L10.4586 34.5689L9.79018 34.8373L9.41883 34.9118L9.32971 34.9267L9.25544 34.9416L9.16631 34.9565L9.09204 34.9714L9.00292 34.9863H8.76525L8.69098 34.9714L8.60186 34.9565L7.93342 34.8224L7.41353 34.6137L7.33926 34.5689L7.27984 34.5391L7.20557 34.4944L6.78966 34.1814L6.73024 34.1217L6.67083 34.077L6.55199 33.9578L6.28462 33.6L6.25491 33.5404L6.21035 33.4658L6.16579 33.4062L6.04696 33.1081L6.01725 33.0484L5.98754 32.9739L5.97268 32.8994L5.94298 32.8248L5.92812 32.7503L5.89841 32.6758L5.88356 32.6012V32.5267L5.86871 32.4522V32.3776L5.85385 32.3031V31.6621L5.86871 31.5727L5.91327 31.3491L5.94298 31.2745L5.95783 31.2L6.1955 30.6037L6.24006 30.5292L6.28462 30.4696L6.31433 30.4099L6.5817 30.0522L6.64112 29.9925L6.68568 29.9329L6.80451 29.8137L6.86393 29.7689L6.92335 29.7093L7.27984 29.441L7.50266 29.3068L7.6512 29.2472L7.72547 29.2025L7.78488 29.1727L7.93342 29.113L8.00769 29.0981L8.08196 29.0683L8.15623 29.0534L8.23051 29.0236L8.7504 28.9192H9.06233L9.24058 28.9491H9.31485L9.38912 28.964L9.47825 28.9789L9.92387 29.0683L9.99814 29.0981L10.0724 29.113L10.1318 29.1429L10.2061 29.1727L10.3398 29.2323L10.4141 29.2621L10.4883 29.3068L10.5626 29.3366L10.622 29.3814L10.6963 29.4261L10.7557 29.4708L10.83 29.5155L11.0676 29.6944L11.1271 29.754L11.1865 29.7988L11.1419 29.8584L11.0825 29.918L11.0379 29.9776L10.9785 30.0373L10.8894 30.1565L10.83 30.2161L10.7408 30.3354L10.6814 30.395L10.6369 30.4547L10.5774 30.5143L10.4883 30.6335L10.4289 30.6932L10.3843 30.7528L10.3249 30.8124L10.2804 30.872L10.221 30.8273L10.1615 30.7677L9.86446 30.5441L9.79018 30.4994L9.61193 30.4099L9.46339 30.3503L9.16631 30.2907L8.98806 30.2609H8.82467L8.52759 30.3205L8.37905 30.3801L8.31963 30.559L8.24536 30.5888L7.88886 30.8571L7.8443 30.9168L7.78488 30.9764L7.6512 31.1553L7.62149 31.2298L7.57693 31.2894L7.45809 31.5876L7.42838 31.7366L7.41353 31.8261V32.3776L7.45809 32.6012L7.4878 32.6758L7.57693 32.646L7.63634 32.795L7.6809 32.8696L7.75517 32.9888L7.8443 33.1081L7.90372 33.1677L7.94828 33.2273L8.24536 33.4509L8.61671 33.6L8.83952 33.6447L8.92865 33.6596H9.06233L9.24058 33.6298L9.61193 33.5553L9.6862 33.5255L9.74562 33.4956L9.81989 33.4658L9.87931 33.436L9.93873 33.3913V32.646H8.83952V31.5429H11.2904V34.0174L11.2459 34.0472ZM8.82467 16.7255H12.0926V14.1913H8.82467V9.01863H12.2263V6.48447H6.04696V24.7751H12.2708V22.241H8.82467V16.7255ZM32.205 17.277V21.4062C32.205 22.1366 31.8633 22.4795 31.1652 22.4795H30.6453C29.9175 22.4795 29.5758 22.1366 29.5758 21.4062V9.85341C29.5758 9.12297 29.9175 8.78012 30.6453 8.78012H31.1058C31.8039 8.78012 32.1456 9.12297 32.1456 9.85341V13.431H34.8639V9.68943C34.8639 7.4236 33.7795 6.32049 31.5217 6.32049H30.17C27.9122 6.32049 26.7981 7.4385 26.7981 9.71925V21.5255C26.7981 23.8062 27.9122 24.9242 30.17 24.9242H31.5366C33.7944 24.9242 34.9084 23.8062 34.9084 21.5255V17.2621H32.205M22.5795 6.48447H25.3573V24.7751H22.5795V6.48447ZM18.5541 14.6087C18.5541 15.3391 18.2124 15.682 17.5143 15.682H16.3705V8.94409H17.5143C18.2124 8.94409 18.5541 9.28695 18.5541 10.0174V14.6087ZM17.9599 6.48447H13.6077V24.7751H16.3854V18.1416H17.9599C20.2178 18.1416 21.3318 17.0236 21.3318 14.7429V9.88322C21.3318 7.60248 20.2178 6.48447 17.9599 6.48447ZM12.5828 41.3068H28.4618L20.3663 43.9901L12.5828 41.3068Z" fill="#5653FB"/>
</svg>
