<svg width="22" height="22" viewBox="0 0 22 22" fill="none" xmlns="http://www.w3.org/2000/svg">
<path d="M21.1538 5.81106C19.8073 5.81106 18.516 5.28629 17.5639 4.35219C16.6118 3.41809 16.0769 2.15117 16.0769 0.830152C16.0769 0.609982 15.9877 0.398829 15.8291 0.243146C15.6704 0.0874621 15.4552 0 15.2307 0H11C10.7756 0 10.5603 0.0874621 10.4016 0.243146C10.243 0.398829 10.1538 0.609982 10.1538 0.830152V14.1126C10.153 14.4837 10.0508 14.8477 9.85782 15.1669C9.66486 15.486 9.3882 15.7486 9.05667 15.9272C8.72515 16.1058 8.35087 16.194 7.97282 16.1825C7.59478 16.1709 7.22679 16.0602 6.90719 15.8618C6.58759 15.6633 6.32806 15.3844 6.15564 15.0542C5.98322 14.7239 5.90421 14.3543 5.92684 13.9839C5.94947 13.6135 6.07292 13.2558 6.28432 12.9481C6.49572 12.6404 6.78734 12.3939 7.12882 12.2344C7.27439 12.1687 7.39766 12.0634 7.48392 11.9309C7.57018 11.7984 7.61581 11.6444 7.61535 11.4872V7.17044C7.61745 7.04738 7.59091 6.92547 7.53776 6.81398C7.48461 6.7025 7.40624 6.60437 7.30862 6.52707C7.21392 6.45052 7.10338 6.39509 6.98466 6.36463C6.86595 6.33416 6.7419 6.3294 6.62112 6.35066C5.1158 6.6152 3.71863 7.29552 2.5936 8.31179C1.46857 9.32805 0.662357 10.6381 0.269598 12.0881C-0.12316 13.5381 -0.0861684 15.068 0.376231 16.4981C0.83863 17.9283 1.70725 19.1993 2.88013 20.1621C4.05302 21.1249 5.4815 21.7394 6.99791 21.9336C8.51432 22.1279 10.0557 21.8937 11.4412 21.2585C12.8267 20.6234 13.9988 19.6137 14.8199 18.348C15.641 17.0822 16.0771 15.6129 16.0769 14.1126V10.408C17.644 11.21 19.3863 11.6267 21.1538 11.6221C21.3782 11.6221 21.5935 11.5347 21.7521 11.379C21.9108 11.2233 22 11.0121 22 10.792V6.64121C22 6.42104 21.9108 6.20989 21.7521 6.05421C21.5935 5.89853 21.3782 5.81106 21.1538 5.81106ZM20.3077 9.92031C18.656 9.77649 17.0741 9.19943 15.7279 8.24963C15.6005 8.16338 15.4517 8.11258 15.2973 8.10263C15.1429 8.09268 14.9886 8.12395 14.8508 8.19313C14.713 8.2623 14.597 8.36679 14.5149 8.4955C14.4328 8.62421 14.3878 8.77233 14.3846 8.92413V14.1126C14.384 15.2539 14.0636 16.3731 13.4585 17.3478C12.8534 18.3226 11.9869 19.1154 10.9535 19.6397C9.92023 20.164 8.75991 20.3995 7.59939 20.3205C6.43886 20.2416 5.32278 19.8512 4.37312 19.192C3.42346 18.5328 2.67674 17.6302 2.21458 16.5828C1.75242 15.5355 1.5926 14.3836 1.75257 13.2531C1.91254 12.1227 2.38616 11.0571 3.12167 10.1728C3.85717 9.28858 4.82626 8.61969 5.92305 8.23926V11.0099C5.37595 11.3685 4.93291 11.8601 4.63714 12.4368C4.34136 13.0134 4.20294 13.6554 4.23537 14.3001C4.2678 14.9449 4.46997 15.5704 4.82217 16.1157C5.17438 16.6609 5.66459 17.1074 6.24502 17.4114C6.82545 17.7155 7.47628 17.8667 8.13405 17.8505C8.79182 17.8343 9.43409 17.6512 9.99823 17.3189C10.5624 16.9867 11.0291 16.5167 11.353 15.9547C11.6768 15.3928 11.8467 14.7581 11.8461 14.1126V1.6603H14.4375C14.6271 3.12276 15.3065 4.48199 16.369 5.52443C17.4316 6.56688 18.817 7.23347 20.3077 7.41948V9.92031Z" fill="white"/>
</svg>
