<svg width="20" height="22" viewBox="0 0 20 22" fill="none" xmlns="http://www.w3.org/2000/svg">
<path d="M4.62138 21.9999C4.44884 21.9981 4.27844 21.9614 4.12049 21.8919C3.91732 21.7965 3.74562 21.6451 3.62557 21.4554C3.50551 21.2658 3.44211 21.0458 3.44282 20.8214V18.0714H2.26425C1.74409 18.0688 1.24596 17.861 0.878149 17.4932C0.510333 17.1254 0.302554 16.6272 0.299973 16.1071V1.96428C0.302554 1.44411 0.510333 0.945992 0.878149 0.578176C1.24596 0.210361 1.74409 0.0025815 2.26425 0H17.9785C18.4986 0.0025815 18.9968 0.210361 19.3646 0.578176C19.7324 0.945992 19.9402 1.44411 19.9428 1.96428V12.6008C19.9431 12.888 19.8799 13.1717 19.7577 13.4315C19.6354 13.6913 19.4571 13.9208 19.2356 14.1035L15.0222 17.6196C14.6693 17.9131 14.2242 18.0731 13.7651 18.0714H9.75797L5.37763 21.7249C5.16739 21.9055 4.89853 22.0033 4.62138 21.9999ZM2.65711 15.7142H4.62138C4.93396 15.7142 5.23373 15.8384 5.45476 16.0594C5.67578 16.2804 5.79995 16.5802 5.79995 16.8928V18.3071L8.36333 16.166C8.71631 15.8724 9.16137 15.7125 9.62047 15.7142H13.6276L17.5856 12.4142V2.35713H2.65711V15.7142Z" fill="white"/>
<path d="M14.0499 11.7855C13.7373 11.7855 13.4376 11.6613 13.2166 11.4403C12.9955 11.2193 12.8714 10.9195 12.8714 10.6069V5.89268C12.8714 5.5801 12.9955 5.28033 13.2166 5.05931C13.4376 4.83828 13.7373 4.71411 14.0499 4.71411C14.3625 4.71411 14.6623 4.83828 14.8833 5.05931C15.1043 5.28033 15.2285 5.5801 15.2285 5.89268V10.6069C15.2285 10.9195 15.1043 11.2193 14.8833 11.4403C14.6623 11.6613 14.3625 11.7855 14.0499 11.7855ZM9.33566 11.7855C9.02308 11.7855 8.72331 11.6613 8.50228 11.4403C8.28126 11.2193 8.15709 10.9195 8.15709 10.6069V5.89268C8.15709 5.5801 8.28126 5.28033 8.50228 5.05931C8.72331 4.83828 9.02308 4.71411 9.33566 4.71411C9.64823 4.71411 9.948 4.83828 10.169 5.05931C10.3901 5.28033 10.5142 5.5801 10.5142 5.89268V10.6069C10.5142 10.9195 10.3901 11.2193 10.169 11.4403C9.948 11.6613 9.64823 11.7855 9.33566 11.7855Z" fill="white"/>
</svg>
