<svg width="25" height="20" viewBox="0 0 25 20" fill="none" xmlns="http://www.w3.org/2000/svg">
<path d="M23.1 1.32161C22 1.86061 20.922 2.07951 19.8 2.41061C18.5669 1.01911 16.7387 0.94211 14.982 1.59991C13.2253 2.25771 12.0747 3.86591 12.1 5.71061V6.81061C8.53048 6.90191 5.35148 5.27611 3.29998 2.41061C3.29998 2.41061 -1.30022 10.5869 7.69998 14.5106C5.64078 15.8823 3.58708 16.8074 1.09998 16.7106C4.73878 18.6939 8.70428 19.3759 12.1374 18.3793C16.0754 17.2353 19.3116 14.284 20.5535 9.86311C20.9239 8.51855 21.1079 7.12946 21.1002 5.73481C21.1002 5.46091 22.7612 2.68561 23.1 1.32051V1.32161Z" stroke="white" stroke-width="2" stroke-linecap="round" stroke-linejoin="round"/>
</svg>
