<svg width="29" height="22" viewBox="0 0 29 22" fill="none" xmlns="http://www.w3.org/2000/svg">
<path d="M19.1187 10.1587L13.2259 6.14041C13.0767 6.04348 12.9055 5.98788 12.729 5.97908C12.5525 5.97027 12.3768 6.00856 12.2192 6.09018C12.0622 6.17687 11.9312 6.30566 11.8404 6.46274C11.7495 6.61982 11.7022 6.79924 11.7036 6.98174V15.0183C11.7022 15.2008 11.7495 15.3802 11.8404 15.5373C11.9312 15.6943 12.0622 15.8231 12.2192 15.9098C12.364 15.984 12.5237 16.0227 12.6857 16.0228C12.8771 16.0207 13.0641 15.9642 13.2259 15.8596L19.1187 11.8413C19.2555 11.75 19.3679 11.6253 19.4457 11.4784C19.5235 11.3315 19.5642 11.1671 19.5642 11C19.5642 10.8329 19.5235 10.6685 19.4457 10.5216C19.3679 10.3747 19.2555 10.25 19.1187 10.1587ZM13.6678 13.1473V8.85274L16.8107 11L13.6678 13.1473ZM27.7002 3.69178C27.5874 3.22883 27.3665 2.80077 27.0564 2.44429C26.7464 2.08781 26.3565 1.81354 25.9201 1.64498C21.7214 -0.0125545 15.0183 2.79741e-06 14.65 2.79741e-06C14.2817 2.79741e-06 7.57855 -0.0125545 3.37989 1.64498C2.9435 1.81354 2.55358 2.08781 2.24354 2.44429C1.9335 2.80077 1.71259 3.22883 1.59976 3.69178C1.28056 4.93493 0.899979 7.22032 0.899979 11C0.899979 14.7797 1.28056 17.0651 1.59976 18.3082C1.71259 18.7712 1.9335 19.1992 2.24354 19.5557C2.55358 19.9122 2.9435 20.1865 3.37989 20.355C7.40668 21.9498 13.7169 22 14.564 22H14.7359C15.583 22 21.8933 21.9498 25.9201 20.355C26.3565 20.1865 26.7464 19.9122 27.0564 19.5557C27.3665 19.1992 27.5874 18.7712 27.7002 18.3082C28.0194 17.0651 28.4 14.7797 28.4 11C28.4 7.22032 28.0194 4.93493 27.7002 3.69178ZM25.7973 17.8059C25.761 17.9579 25.6897 18.0987 25.5893 18.2167C25.489 18.3347 25.3624 18.4263 25.2203 18.484C21.3286 20.016 14.7236 19.9909 14.65 19.9909H14.6377C14.5763 19.9909 7.97141 20.016 4.07967 18.484C3.93755 18.4263 3.811 18.3347 3.71061 18.2167C3.61023 18.0987 3.53892 17.9579 3.50266 17.8059C3.20801 16.6632 2.86426 14.5662 2.86426 11C2.86426 7.43379 3.20801 5.33676 3.50266 4.19407C3.53892 4.04213 3.61023 3.90129 3.71061 3.78332C3.811 3.66535 3.93755 3.57368 4.07967 3.51598C7.82409 2.04681 14.1098 2.00914 14.6254 2.00914H14.65C14.7236 2.00914 21.3286 1.98402 25.2203 3.51598C25.3624 3.57368 25.489 3.66535 25.5893 3.78332C25.6897 3.90129 25.761 4.04213 25.7973 4.19407C26.0919 5.33676 26.4357 7.43379 26.4357 11C26.4357 14.5662 26.0919 16.6632 25.7973 17.8059Z" fill="white"/>
</svg>
